<svg width="32" height="24" viewBox="0 0 32 24" fill="none" xmlns="http://www.w3.org/2000/svg">
<g id="Uzbekistan (UZ)" clip-path="url(#clip0_1_557)">
<path id="Vector" d="M0 16H32V24H0V16Z" fill="#1EB53A"/>
<path id="Vector_2" d="M0 0H32V8H0V0Z" fill="#0099B5"/>
<path id="Vector_3" d="M0 7.68005H32V16.3201H0V7.68005Z" fill="#CE1126"/>
<path id="Vector_4" d="M0 8.16003H32V15.84H0V8.16003Z" fill="white"/>
<path id="Vector_5" d="M6.72 6.71996C8.31058 6.71996 9.6 5.43054 9.6 3.83996C9.6 2.24938 8.31058 0.959961 6.72 0.959961C5.12942 0.959961 3.84 2.24938 3.84 3.83996C3.84 5.43054 5.12942 6.71996 6.72 6.71996Z" fill="white"/>
<path id="Vector_6" d="M7.67999 6.71996C9.27057 6.71996 10.56 5.43054 10.56 3.83996C10.56 2.24938 9.27057 0.959961 7.67999 0.959961C6.08941 0.959961 4.79999 2.24938 4.79999 3.83996C4.79999 5.43054 6.08941 6.71996 7.67999 6.71996Z" fill="#0099B5"/>
<g id="Group">
<g id="e">
<g id="d">
<g id="c">
<g id="b">
<path id="a" d="M13.055 5.56909L12.8726 6.11629L13.151 6.21229" fill="white"/>
<path id="a_2" d="M13.055 5.56909L13.2374 6.11629L12.959 6.21229" fill="white"/>
</g>
<g id="b_2">
<path id="a_3" d="M13.6028 5.96705L13.026 5.96267L13.0208 6.25711" fill="white"/>
<path id="a_4" d="M13.6028 5.96703L13.1388 6.3096L12.9614 6.07449" fill="white"/>
</g>
</g>
<g id="b_3">
<path id="a_5" d="M12.5072 5.96715L12.9713 6.30972L13.1486 6.07461" fill="white"/>
<path id="a_6" d="M12.5072 5.96717L13.084 5.9628L13.0893 6.25724" fill="white"/>
</g>
<g id="c_2">
<g id="b_4">
<path id="a_7" d="M13.3936 6.61112L13.2195 6.06121L12.9378 6.14719" fill="white"/>
<path id="a_8" d="M13.3936 6.61117L12.9244 6.27569L13.0932 6.03438" fill="white"/>
</g>
<g id="b_5">
<path id="a_9" d="M12.7164 6.61117L13.1856 6.27569L13.0168 6.03438" fill="white"/>
<path id="a_10" d="M12.7164 6.61112L12.8905 6.06121L13.1722 6.14719" fill="white"/>
</g>
</g>
</g>
<g id="d_2">
<g id="c_3">
<g id="b_6">
<path id="a_11" d="M13.055 3.26501L12.8726 3.81221L13.151 3.90821" fill="white"/>
<path id="a_12" d="M13.055 3.26501L13.2374 3.81221L12.959 3.90821" fill="white"/>
</g>
<g id="b_7">
<path id="a_13" d="M13.6028 3.66297L13.026 3.6586L13.0208 3.95304" fill="white"/>
<path id="a_14" d="M13.6028 3.66295L13.1388 4.00552L12.9614 3.77041" fill="white"/>
</g>
</g>
<g id="b_8">
<path id="a_15" d="M12.5072 3.66308L12.9713 4.00564L13.1486 3.77053" fill="white"/>
<path id="a_16" d="M12.5072 3.6631L13.084 3.65872L13.0893 3.95316" fill="white"/>
</g>
<g id="c_4">
<g id="b_9">
<path id="a_17" d="M13.3936 4.30704L13.2195 3.75714L12.9378 3.84311" fill="white"/>
<path id="a_18" d="M13.3936 4.30709L12.9244 3.97161L13.0932 3.73031" fill="white"/>
</g>
<g id="b_10">
<path id="a_19" d="M12.7164 4.30709L13.1856 3.97161L13.0168 3.73031" fill="white"/>
<path id="a_20" d="M12.7164 4.30704L12.8905 3.75714L13.1722 3.84311" fill="white"/>
</g>
</g>
</g>
<g id="d_3">
<g id="c_5">
<g id="b_11">
<path id="a_21" d="M13.055 0.96106L12.8726 1.50826L13.151 1.60426" fill="white"/>
<path id="a_22" d="M13.055 0.96106L13.2374 1.50826L12.959 1.60426" fill="white"/>
</g>
<g id="b_12">
<path id="a_23" d="M13.6028 1.35902L13.026 1.35464L13.0208 1.64908" fill="white"/>
<path id="a_24" d="M13.6028 1.359L13.1388 1.70156L12.9614 1.46646" fill="white"/>
</g>
</g>
<g id="b_13">
<path id="a_25" d="M12.5072 1.35912L12.9713 1.70169L13.1486 1.46658" fill="white"/>
<path id="a_26" d="M12.5072 1.35914L13.084 1.35476L13.0893 1.6492" fill="white"/>
</g>
<g id="c_6">
<g id="b_14">
<path id="a_27" d="M13.3936 2.00309L13.2195 1.45318L12.9378 1.53915" fill="white"/>
<path id="a_28" d="M13.3936 2.00314L12.9244 1.66766L13.0932 1.42635" fill="white"/>
</g>
<g id="b_15">
<path id="a_29" d="M12.7164 2.00314L13.1856 1.66766L13.0168 1.42635" fill="white"/>
<path id="a_30" d="M12.7164 2.00309L12.8905 1.45318L13.1722 1.53915" fill="white"/>
</g>
</g>
</g>
</g>
<g id="e_2">
<g id="d_4">
<g id="c_7">
<g id="b_16">
<path id="a_31" d="M15.359 5.56909L15.1766 6.11629L15.455 6.21229" fill="white"/>
<path id="a_32" d="M15.359 5.56909L15.5414 6.11629L15.263 6.21229" fill="white"/>
</g>
<g id="b_17">
<path id="a_33" d="M15.9068 5.96705L15.33 5.96267L15.3248 6.25711" fill="white"/>
<path id="a_34" d="M15.9068 5.96703L15.4428 6.3096L15.2654 6.07449" fill="white"/>
</g>
</g>
<g id="b_18">
<path id="a_35" d="M14.8112 5.96715L15.2752 6.30972L15.4526 6.07461" fill="white"/>
<path id="a_36" d="M14.8112 5.96717L15.388 5.9628L15.3932 6.25724" fill="white"/>
</g>
<g id="c_8">
<g id="b_19">
<path id="a_37" d="M15.6976 6.61112L15.5235 6.06121L15.2418 6.14719" fill="white"/>
<path id="a_38" d="M15.6976 6.61117L15.2284 6.27569L15.3972 6.03438" fill="white"/>
</g>
<g id="b_20">
<path id="a_39" d="M15.0204 6.61117L15.4896 6.27569L15.3208 6.03438" fill="white"/>
<path id="a_40" d="M15.0204 6.61112L15.1945 6.06121L15.4762 6.14719" fill="white"/>
</g>
</g>
</g>
<g id="d_5">
<g id="c_9">
<g id="b_21">
<path id="a_41" d="M15.359 3.26501L15.1766 3.81221L15.455 3.90821" fill="white"/>
<path id="a_42" d="M15.359 3.26501L15.5414 3.81221L15.263 3.90821" fill="white"/>
</g>
<g id="b_22">
<path id="a_43" d="M15.9068 3.66297L15.33 3.6586L15.3248 3.95304" fill="white"/>
<path id="a_44" d="M15.9068 3.66295L15.4428 4.00552L15.2654 3.77041" fill="white"/>
</g>
</g>
<g id="b_23">
<path id="a_45" d="M14.8112 3.66308L15.2752 4.00564L15.4526 3.77053" fill="white"/>
<path id="a_46" d="M14.8112 3.6631L15.388 3.65872L15.3932 3.95316" fill="white"/>
</g>
<g id="c_10">
<g id="b_24">
<path id="a_47" d="M15.6976 4.30704L15.5235 3.75714L15.2418 3.84311" fill="white"/>
<path id="a_48" d="M15.6976 4.30709L15.2284 3.97161L15.3972 3.73031" fill="white"/>
</g>
<g id="b_25">
<path id="a_49" d="M15.0204 4.30709L15.4896 3.97161L15.3208 3.73031" fill="white"/>
<path id="a_50" d="M15.0204 4.30704L15.1945 3.75714L15.4762 3.84311" fill="white"/>
</g>
</g>
</g>
<g id="d_6">
<g id="c_11">
<g id="b_26">
<path id="a_51" d="M15.359 0.96106L15.1766 1.50826L15.455 1.60426" fill="white"/>
<path id="a_52" d="M15.359 0.96106L15.5414 1.50826L15.263 1.60426" fill="white"/>
</g>
<g id="b_27">
<path id="a_53" d="M15.9068 1.35902L15.33 1.35464L15.3248 1.64908" fill="white"/>
<path id="a_54" d="M15.9068 1.359L15.4428 1.70156L15.2654 1.46646" fill="white"/>
</g>
</g>
<g id="b_28">
<path id="a_55" d="M14.8112 1.35912L15.2752 1.70169L15.4526 1.46658" fill="white"/>
<path id="a_56" d="M14.8112 1.35914L15.388 1.35476L15.3932 1.6492" fill="white"/>
</g>
<g id="c_12">
<g id="b_29">
<path id="a_57" d="M15.6976 2.00309L15.5235 1.45318L15.2418 1.53915" fill="white"/>
<path id="a_58" d="M15.6976 2.00314L15.2284 1.66766L15.3972 1.42635" fill="white"/>
</g>
<g id="b_30">
<path id="a_59" d="M15.0204 2.00314L15.4896 1.66766L15.3208 1.42635" fill="white"/>
<path id="a_60" d="M15.0204 2.00309L15.1945 1.45318L15.4762 1.53915" fill="white"/>
</g>
</g>
</g>
</g>
<g id="e_3">
<g id="d_7">
<g id="c_13">
<g id="b_31">
<path id="a_61" d="M17.663 5.56909L17.4806 6.11629L17.759 6.21229" fill="white"/>
<path id="a_62" d="M17.663 5.56909L17.8454 6.11629L17.567 6.21229" fill="white"/>
</g>
<g id="b_32">
<path id="a_63" d="M18.2108 5.96705L17.6341 5.96267L17.6288 6.25711" fill="white"/>
<path id="a_64" d="M18.2108 5.96703L17.7468 6.3096L17.5695 6.07449" fill="white"/>
</g>
</g>
<g id="b_33">
<path id="a_65" d="M17.1152 5.96715L17.5793 6.30972L17.7566 6.07461" fill="white"/>
<path id="a_66" d="M17.1152 5.96717L17.692 5.9628L17.6973 6.25724" fill="white"/>
</g>
<g id="c_14">
<g id="b_34">
<path id="a_67" d="M18.0016 6.61112L17.8275 6.06121L17.5458 6.14719" fill="white"/>
<path id="a_68" d="M18.0016 6.61117L17.5324 6.27569L17.7012 6.03438" fill="white"/>
</g>
<g id="b_35">
<path id="a_69" d="M17.3245 6.61117L17.7937 6.27569L17.6248 6.03438" fill="white"/>
<path id="a_70" d="M17.3244 6.61112L17.4985 6.06121L17.7802 6.14719" fill="white"/>
</g>
</g>
</g>
<g id="d_8">
<g id="c_15">
<g id="b_36">
<path id="a_71" d="M17.663 3.26501L17.4806 3.81221L17.759 3.90821" fill="white"/>
<path id="a_72" d="M17.663 3.26501L17.8454 3.81221L17.567 3.90821" fill="white"/>
</g>
<g id="b_37">
<path id="a_73" d="M18.2108 3.66297L17.6341 3.6586L17.6288 3.95304" fill="white"/>
<path id="a_74" d="M18.2108 3.66295L17.7468 4.00552L17.5695 3.77041" fill="white"/>
</g>
</g>
<g id="b_38">
<path id="a_75" d="M17.1152 3.66308L17.5793 4.00564L17.7566 3.77053" fill="white"/>
<path id="a_76" d="M17.1152 3.6631L17.692 3.65872L17.6973 3.95316" fill="white"/>
</g>
<g id="c_16">
<g id="b_39">
<path id="a_77" d="M18.0016 4.30704L17.8275 3.75714L17.5458 3.84311" fill="white"/>
<path id="a_78" d="M18.0016 4.30709L17.5324 3.97161L17.7012 3.73031" fill="white"/>
</g>
<g id="b_40">
<path id="a_79" d="M17.3245 4.30709L17.7937 3.97161L17.6248 3.73031" fill="white"/>
<path id="a_80" d="M17.3244 4.30704L17.4985 3.75714L17.7802 3.84311" fill="white"/>
</g>
</g>
</g>
<g id="d_9">
<g id="c_17">
<g id="b_41">
<path id="a_81" d="M17.663 0.96106L17.4806 1.50826L17.759 1.60426" fill="white"/>
<path id="a_82" d="M17.663 0.96106L17.8454 1.50826L17.567 1.60426" fill="white"/>
</g>
<g id="b_42">
<path id="a_83" d="M18.2108 1.35902L17.6341 1.35464L17.6288 1.64908" fill="white"/>
<path id="a_84" d="M18.2108 1.359L17.7468 1.70156L17.5695 1.46646" fill="white"/>
</g>
</g>
<g id="b_43">
<path id="a_85" d="M17.1152 1.35912L17.5793 1.70169L17.7566 1.46658" fill="white"/>
<path id="a_86" d="M17.1152 1.35914L17.692 1.35476L17.6973 1.6492" fill="white"/>
</g>
<g id="c_18">
<g id="b_44">
<path id="a_87" d="M18.0016 2.00309L17.8275 1.45318L17.5458 1.53915" fill="white"/>
<path id="a_88" d="M18.0016 2.00314L17.5324 1.66766L17.7012 1.42635" fill="white"/>
</g>
<g id="b_45">
<path id="a_89" d="M17.3245 2.00314L17.7937 1.66766L17.6248 1.42635" fill="white"/>
<path id="a_90" d="M17.3244 2.00309L17.4985 1.45318L17.7802 1.53915" fill="white"/>
</g>
</g>
</g>
</g>
<g id="d_10">
<g id="c_19">
<g id="b_46">
<path id="a_91" d="M8.44702 5.56909L8.26462 6.11629L8.54302 6.21229" fill="white"/>
<path id="a_92" d="M8.44703 5.56909L8.62943 6.11629L8.35103 6.21229" fill="white"/>
</g>
<g id="b_47">
<path id="a_93" d="M8.99484 5.96705L8.41806 5.96267L8.41279 6.25711" fill="white"/>
<path id="a_94" d="M8.99484 5.96703L8.53079 6.3096L8.35346 6.07449" fill="white"/>
</g>
</g>
<g id="b_48">
<path id="a_95" d="M7.8992 5.96715L8.36325 6.30972L8.54058 6.07461" fill="white"/>
<path id="a_96" d="M7.8992 5.96717L8.47598 5.9628L8.48126 6.25724" fill="white"/>
</g>
<g id="c_20">
<g id="b_49">
<path id="a_97" d="M8.78557 6.61112L8.6115 6.06121L8.32984 6.14719" fill="white"/>
<path id="a_98" d="M8.78557 6.61117L8.31636 6.27569L8.48517 6.03438" fill="white"/>
</g>
<g id="b_50">
<path id="a_99" d="M8.10845 6.61117L8.57765 6.27569L8.40885 6.03438" fill="white"/>
<path id="a_100" d="M8.10844 6.61112L8.28251 6.06121L8.56417 6.14719" fill="white"/>
</g>
</g>
</g>
<g id="d_11">
<g id="c_21">
<g id="b_51">
<path id="a_101" d="M10.751 5.56909L10.5686 6.11629L10.847 6.21229" fill="white"/>
<path id="a_102" d="M10.751 5.56909L10.9334 6.11629L10.655 6.21229" fill="white"/>
</g>
<g id="b_52">
<path id="a_103" d="M11.2988 5.96705L10.722 5.96267L10.7168 6.25711" fill="white"/>
<path id="a_104" d="M11.2988 5.96703L10.8348 6.3096L10.6574 6.07449" fill="white"/>
</g>
</g>
<g id="b_53">
<path id="a_105" d="M10.2032 5.96715L10.6672 6.30972L10.8446 6.07461" fill="white"/>
<path id="a_106" d="M10.2032 5.96717L10.78 5.9628L10.7852 6.25724" fill="white"/>
</g>
<g id="c_22">
<g id="b_54">
<path id="a_107" d="M11.0896 6.61112L10.9155 6.06121L10.6338 6.14719" fill="white"/>
<path id="a_108" d="M11.0896 6.61117L10.6204 6.27569L10.7892 6.03438" fill="white"/>
</g>
<g id="b_55">
<path id="a_109" d="M10.4124 6.61117L10.8816 6.27569L10.7128 6.03438" fill="white"/>
<path id="a_110" d="M10.4124 6.61112L10.5865 6.06121L10.8682 6.14719" fill="white"/>
</g>
</g>
</g>
<g id="d_12">
<g id="c_23">
<g id="b_56">
<path id="a_111" d="M10.751 3.26501L10.5686 3.81221L10.847 3.90821" fill="white"/>
<path id="a_112" d="M10.751 3.26501L10.9334 3.81221L10.655 3.90821" fill="white"/>
</g>
<g id="b_57">
<path id="a_113" d="M11.2988 3.66297L10.722 3.6586L10.7168 3.95304" fill="white"/>
<path id="a_114" d="M11.2988 3.66295L10.8348 4.00552L10.6574 3.77041" fill="white"/>
</g>
</g>
<g id="b_58">
<path id="a_115" d="M10.2032 3.66308L10.6672 4.00564L10.8446 3.77053" fill="white"/>
<path id="a_116" d="M10.2032 3.6631L10.78 3.65872L10.7852 3.95316" fill="white"/>
</g>
<g id="c_24">
<g id="b_59">
<path id="a_117" d="M11.0896 4.30704L10.9155 3.75714L10.6338 3.84311" fill="white"/>
<path id="a_118" d="M11.0896 4.30709L10.6204 3.97161L10.7892 3.73031" fill="white"/>
</g>
<g id="b_60">
<path id="a_119" d="M10.4124 4.30709L10.8816 3.97161L10.7128 3.73031" fill="white"/>
<path id="a_120" d="M10.4124 4.30704L10.5865 3.75714L10.8682 3.84311" fill="white"/>
</g>
</g>
</g>
</g>
</g>
<defs>
<clipPath id="clip0_1_557">
<rect width="32" height="24" fill="white"/>
</clipPath>
</defs>
</svg>
