<svg width="10" height="14" viewBox="0 0 10 14" fill="none" xmlns="http://www.w3.org/2000/svg">
<g id="svg_image_1.svg" clip-path="url(#clip0_1_312)">
<path id="tel1.svg" fill-rule="evenodd" clip-rule="evenodd" d="M9.32953 12.3484C9.16953 11.9934 8.18951 9.72344 8.18951 9.72344C8.06171 9.59709 7.89794 9.51348 7.72064 9.48411C7.54334 9.45473 7.36124 9.48106 7.19952 9.55945C6.62952 9.83245 5.88958 10.2154 5.88958 10.2154C5.0638 9.65833 4.43682 8.85275 4.09955 7.91544C3.60368 6.9366 3.26938 5.88402 3.10956 4.79844C3.29494 4.59251 3.51928 4.42529 3.76959 4.30644C4.19959 4.08744 5.26953 3.84144 5.07953 3.15844L3.76959 0.205442C3.65444 0.117429 3.52072 0.0569012 3.3786 0.0284777C3.23648 5.41732e-05 3.08966 0.00448893 2.94952 0.0414439C2.22442 0.220098 1.58383 0.644854 1.13702 1.24322C0.690208 1.84158 0.464918 2.57647 0.49957 3.32244C0.556532 5.09322 1.00391 6.82957 1.80963 8.40744C2.72963 10.5674 4.79952 13.9854 7.19952 13.9854C7.67771 13.9665 8.13712 13.7939 8.50958 13.4934L9.48956 13.0014C9.47851 12.7755 9.42416 12.5539 9.32953 12.3484Z" fill="#EF7300"/>
</g>
<defs>
<clipPath id="clip0_1_312">
<rect width="9" height="13.969" fill="white" transform="translate(0.5 0.0100098)"/>
</clipPath>
</defs>
</svg>
